<?xml version="1.0" encoding="UTF-8" standalone="no"?>
<!-- The Process of Design Squiggle by Damien Newman, thedesignsquiggle.com -->
<svg width="100%" height="100%" viewBox="0 0 34709 10655" version="1.1" xmlns="http://www.w3.org/2000/svg" xmlns:xlink="http://www.w3.org/1999/xlink">
    <path d="M463.908,4789.49c0.289,104.61 3.762,205.603 21.414,309.056c3.111,18.303 29.734,31.542 43.985,15.915c108.662,-118.789 425.169,-1105.06 100.849,-1018.75c-184.696,49.194 -239.244,315.928 -265.649,473.35c-52.016,309.996 -36.679,636.052 6.655,946.12c33.496,239.533 76.396,595.395 267.675,770.034c10.056,9.261 26.623,14.469 37.981,3.184c125.3,-125.156 205.603,-297.553 278.019,-456.711c116.62,-256.316 207.918,-525.582 273.896,-799.261c86.018,-356.297 216.961,-955.598 -111.265,-1235.21c-13.312,-11.358 -35.377,-2.388 -40.803,12.732c-201.406,568.483 -110.18,1244.54 68.077,1806.73c80.302,253.423 186.431,514.514 358.032,721.13c53.68,64.531 135.429,161.256 231.792,140.42c213.705,-46.155 203.939,-507.496 208.135,-657.9c12.298,-439.854 -40.224,-887.16 -138.323,-1315.58c-78.421,-342.623 -192.291,-844.115 -518.275,-1042.92c-12.661,-7.669 -28.504,-5.788 -37.547,6.656c-185.781,253.856 -236.928,596.841 -273.679,901.556c-54.403,450.344 -57.659,906.621 -52.812,1359.64c4.413,422.346 22.572,844.476 27.347,1266.82c2.242,197.066 1.085,393.843 6.149,590.982c7.524,292.416 22.933,616.591 -128.556,878.551c15.481,1.302 30.963,2.604 46.517,3.906c-123.492,-286.194 -119.513,-624.115 -100.848,-929.336c21.559,-351.233 80.158,-703.984 181.295,-1041.25c40.151,-134.054 86.741,-267.457 149.03,-393.047c24.597,-49.556 56.79,-132.535 100.703,-169.069c32.628,-27.202 14.469,-29.951 32.049,-25.538c19.099,4.847 68.438,85.077 78.711,99.908c239.243,346.24 331.988,784.792 479.788,1173.43c16.277,-7.741 32.483,-15.482 48.76,-23.151c-238.954,-573.546 -449.404,-1159.9 -745.22,-1707.91c-142.953,-264.853 -537.664,-1019.26 -937.005,-668.535c-195.62,171.818 -169.141,506.194 -142.085,737.262c44.782,382.702 147.583,771.915 292.272,1128.79c181.729,448.319 638.946,1338.52 1265.95,1078.87c293.502,-121.539 482.899,-442.603 624.043,-709.048c204.229,-385.668 350.003,-800.129 486.083,-1213.72c-17.291,-1.519 -34.653,-3.11 -51.944,-4.63c204.952,1056.45 373.949,2123.96 515.382,3190.82c37.692,284.676 73.936,570.002 89.924,856.848c8.392,150.404 13.022,302.906 -2.315,453.093c-8.247,80.881 -17.29,234.324 -97.954,282.361c-207.267,123.491 -532.093,-472.771 -602.268,-599.736c-200.828,-363.314 -341.031,-759.906 -450.127,-1159.39c-233.962,-857.065 -349.279,-1779.67 -254.29,-2666.04c74.08,-691.179 339.44,-1347.05 455.697,-2031.36c73.719,-433.849 154.673,-1128.64 -345.589,-1347.92c-612.902,-268.615 -1163.81,316.434 -1475.39,777.341c-216.454,320.124 -382.123,702.826 -373.08,1095.8c6.005,261.742 81.822,584.181 366.569,667.16c240.039,69.957 511.186,-38.632 721.781,-148.812c250.601,-131.161 417.283,-327.142 594.454,-544.175c125.952,-154.311 249.299,-311.949 388.779,-454.396c102.729,-104.971 243.005,-251.107 399.776,-260.15c169.141,-9.767 280.479,198.368 357.887,321.716c109.096,173.843 203.722,357.092 293.068,541.715c78.783,162.702 153.153,327.648 220.867,495.342c4.92,12.371 24.163,20.329 35.956,12.805c346.529,-221.446 525.437,-642.274 664.99,-1012.39c100.848,-267.385 179.631,-541.571 251.252,-818.071c177.461,-685.174 325.405,-1389.3 371.272,-2096.83c20.835,-320.703 96.652,-1208.73 -377.494,-1279.92c-230.272,-34.581 -456.565,161.907 -609.285,307.536c-242.932,231.647 -446.799,507.279 -623.464,791.738c-75.6,121.683 -147.004,246.839 -207.701,376.697c-69.089,147.945 54.765,274.981 140.276,399.052c166.465,241.703 310.936,464.668 389.285,751.369c66.413,242.788 80.665,496.934 25.755,743.267c-93.035,416.704 -361.288,752.527 -608.923,1088.57c-101.499,137.744 -497.079,764.608 -712.665,541.209c-127.905,-132.608 -129.28,-409.18 -146.642,-581.505c-22.21,-220.723 -24.453,-446.076 4.268,-666.437c23.657,-181.006 66.774,-415.402 211.607,-542.872c105.117,-92.529 217.106,-36.751 319.618,30.457c261.887,171.745 470.384,438.841 662.024,682.135c206.905,262.683 400.21,536.868 580.564,818.361c464.524,725.253 611.528,1646.85 409.687,2485.76c-109.313,454.25 -325.478,853.302 -758.242,1067.01c-183.249,90.43 -395.797,146.497 -599.808,105.912c-263.985,-52.377 -422.202,-275.849 -494.691,-521.893c-65.978,-223.978 -85.077,-459.387 -141.289,-685.825c-3.617,-14.614 -15.988,-24.018 -31.325,-21.92c-304.57,42.104 -532.962,405.273 -693.06,633.013c-215.876,306.958 -411.35,617.098 -650.015,907.055c-238.664,289.957 -513.645,654.573 -432.113,1053.12c60.914,297.48 291.91,488.831 576.006,566.24c519.289,141.506 1227.54,31.397 1672.1,-264.708c302.616,-201.552 337.631,-496.934 214.211,-825.378c-81.098,-215.948 -203.143,-413.376 -291.909,-625.996c-110.181,-263.913 -210.884,-532.166 -305.8,-802.011c-206.327,-586.786 -380.315,-1185.15 -520.446,-1791.18c-109.168,-472.265 -257.836,-1001.61 -194.462,-1490.95c35.015,-269.7 182.67,-428.93 409.252,-561.899c112.424,-65.978 227.307,-127.254 336.836,-198.151c113.653,-73.647 223.544,-106.057 193.232,-250.891c-66.412,-317.23 -331.482,-445.425 -590.403,-589.462c-294.659,-163.933 -502.432,-460.111 -288.22,-781.899c179.703,-270.062 510.679,-434.935 799.117,-560.814c252.988,-110.398 523.846,-209.437 797.235,-255.159c298.855,-49.99 629.108,3.038 851.711,221.374c251.542,246.839 331.772,623.464 361.795,961.602c42.032,474.29 -12.299,956.828 -92.818,1424.17c-106.925,620.571 -253.712,1234.99 -405.346,1845.87c-137.888,555.244 -291.186,1106.8 -425.24,1662.98c-57.876,239.894 -113.654,480.729 -186.794,716.572c-25.537,82.4 -184.189,577.091 -250.167,565.155c-41.309,-7.524 -97.448,-133.693 -114.955,-165.38c-39.934,-72.272 -72.417,-148.74 -101.282,-226.076c-68.438,-183.032 -114.666,-374.31 -152.575,-565.734c-79.579,-402.235 -120.019,-812.5 -141.289,-1221.68c-46.228,-889.114 44.42,-1769.47 446.004,-2578.72c114.593,-230.779 790.58,-1257.92 960.951,-558.571c125.011,512.922 24.742,1107.59 -39.789,1622.4c-66.413,529.634 -156.481,1056.08 -255.159,1580.58c-53.824,285.761 -111.194,572.245 -199.743,849.614c-67.063,210.088 -324.827,890.415 -627.082,557.992c-203.722,-223.906 -252.048,-609.646 -296.829,-895.841c-51.871,-331.555 -80.447,-669.693 -80.592,-1005.44c-0.434,-943.589 358.178,-1787.63 958.419,-2505.87c277.731,-332.423 594.672,-641.333 919.426,-927.745c212.837,-187.734 491.002,-398.69 787.18,-401.512c167.839,-1.519 375.974,54.982 531.442,-33.423c442.169,-251.614 252.265,-951.908 87.537,-1306.11c-203.867,-438.408 -603.063,-969.56 -1125.54,-1021.29c-259.282,-25.61 -473.639,102.657 -643.431,288.365c-310.647,339.73 -531.877,754.987 -597.855,1213.29c-129.352,897.577 307.536,1772.51 745.293,2524.75c220.578,379.158 470.745,744.352 670.054,1135.45c258.921,508.075 413.087,1071.57 429.436,1642.58c16.061,559.729 -105.984,1127.42 -314.336,1646.2c-35.015,87.247 -83.052,222.748 -167.478,279.032c-131.884,87.899 -234.902,-115.317 -282.577,-210.594c-72.779,-145.63 -113.943,-306.958 -146.063,-465.826c-159.303,-787.976 -132.029,-1652.49 -1.954,-2443.14c60.408,-367.221 181.223,-716.283 331.627,-1056.01c159.23,-359.914 368.523,-837.315 722.432,-1048.92c60.118,-35.955 41.525,-35.811 68.655,21.124c23.15,48.326 34.146,105.696 47.53,157.494c33.857,131.522 58.744,265.36 80.592,399.269c56.139,343.564 90.358,691.251 108.95,1038.79c9.26,172.469 81.677,1676.87 -286.484,1553.89c-124.794,-41.67 -236.06,-166.681 -324.609,-257.401c-120.164,-123.058 -231.285,-254.942 -338.066,-389.72c-168.635,-212.837 -347.47,-436.96 -469.009,-681.267c-473.928,-952.704 249.227,-1940.93 717.729,-2734.98c179.27,-303.774 356.225,-682.208 631.785,-911.902c255.448,-212.909 361.649,134.416 405.924,336.836c136.948,625.49 98.678,1285.27 108.372,1921.4c11.937,780.814 41.526,1554.9 -16.784,2335.35c-62.144,830.442 -179.559,1699.15 -536.94,2460.22c-77.915,165.959 -169.359,326.346 -279.611,473.133c-84.209,112.062 -216.672,300.302 -351.812,356.875c-50.351,21.052 -22.209,34.508 -60.19,-1.157c-14.469,-13.529 -23.367,-47.965 -30.819,-66.123c-29.516,-71.549 -48.76,-147.076 -63.952,-222.821c-34.292,-170.371 -46.011,-345.228 -50.424,-518.71c-18.81,-744.786 87.247,-1496.88 211.245,-2229.58c124.071,-732.922 284.893,-1474.74 579.19,-2160.13c77.264,-179.92 165.09,-357.815 279.105,-517.697c46.156,-64.675 96.724,-126.602 154.889,-180.933c24.742,-23.078 50.714,-45.288 78.494,-64.676c58.599,-40.947 50.713,-46.083 92.89,-4.63c97.376,95.712 112.568,334.882 129.714,461.775c27.78,206.76 36.461,416.053 41.019,624.405c17.652,807.146 -28.504,1655.82 206.616,2437.36c8.32,27.419 50.352,30.385 53.462,-2.17c66.051,-682.064 82.401,-1370.2 20.836,-2053.21c-1.592,-17.941 -23.368,-26.478 -38.126,-19.678c-202.275,92.023 -321.716,363.459 -412.942,549.674c-178.329,364.326 -311.081,751.875 -426.832,1140c-232.877,781.465 -457.579,1658.57 -384.583,2480.84c17.579,198.007 59.539,486.878 263.406,584.326c169.358,80.953 290.608,-47.82 365.484,-189.253c152.43,-288.003 207.701,-635.329 263.117,-952.559c80.013,-457.579 133.041,-919.788 183.682,-1381.35c58.382,-533.251 108.879,-1067.44 175.58,-1599.68c47.024,-374.962 80.809,-780.38 220.651,-1134.94c-15.265,2.677 -30.602,5.426 -45.867,8.102c259.211,400.716 324.899,957.624 395.363,1418.82c79.506,520.229 137.454,1052.9 125.3,1579.86c17.797,-0.724 35.666,-1.447 53.463,-2.171c-115.245,-568.627 -128.918,-1153.32 -130.727,-1731.78c-1.591,-510.607 -9.838,-1024.18 4.052,-1534.64c6.077,-224.629 17.218,-468.285 106.418,-677.722c1.086,-2.46 55.272,-136.08 77.915,-135.646c10.346,0.217 53.68,101.427 62.289,118.572c51.075,101.283 90.431,208.063 122.045,316.797c131.378,451.863 152.213,932.23 182.959,1399.07c33.496,510.1 55.633,1035.25 219.566,1523.72c7.017,21.053 35.087,17.653 46.445,3.907c11.719,-14.035 137.092,-140.42 164.005,-136.586c37.98,5.281 89.273,120.309 105.984,153.225c69.957,137.672 106.708,289.667 125.011,442.242c39.934,331.844 -6.077,675.986 -94.626,996.545c-73.719,267.023 -178.691,536.868 -344.577,760.846c-70.897,95.784 -161.545,211.752 -276.139,257.763c-443.616,177.968 -483.188,-1144.49 -495.704,-1349.01c-51.002,-830.007 -23.512,-1666.02 21.631,-2495.67c35.594,-654.934 62.289,-1337.29 285.544,-1960.53c63.88,-178.546 210.522,-520.591 427.773,-294.804c213.922,222.315 244.958,558.427 254.073,850.843c11.069,355.211 -18.448,710.278 -16.494,1065.49c1.519,280.407 13.166,575.79 134.343,833.698c10.346,22.065 40.586,18.447 49.701,-2.171c366.208,-828.127 215.948,-1808.39 632.29,-2616.19c-17.29,-1.519 -34.58,-3.111 -51.871,-4.702c120.237,1804.41 -445.786,3599.14 -189.614,5400.01c3.617,25.465 44.853,30.963 51.871,4.702c527.68,-1983.18 499.61,-4058.16 802.444,-6077.66c-17.797,0.723 -35.593,1.447 -53.462,2.098c241.558,905.318 125.373,1881.82 139.19,2807.69c16.857,1124.02 117.994,2262.36 345.59,3363.8c4.051,19.678 28.142,29.661 43.985,15.916c453.093,-393.12 600.459,-1041.47 702.031,-1606.19c131.666,-731.692 173.554,-1476.41 306.523,-2207.88c67.787,-373.225 157.277,-754.842 345.083,-1087.99c-15.554,-1.302 -31.036,-2.604 -46.518,-3.906c224.485,530.574 104.538,1180.3 -33.133,1717.89c-132.174,516.25 -318.533,1039.88 -590.476,1500.28c-131.015,221.808 -296.829,425.168 -481.597,604.221c-191.206,185.419 -499.683,462.498 -790.58,363.241c-415.98,-141.94 -379.012,-870.737 -369.535,-1211.55c22.21,-803.096 161.617,-1615.23 353.475,-2393.95c111.266,-451.863 241.847,-905.897 437.611,-1329.18c120.96,-261.526 344.649,-731.837 696.026,-715.125c216.527,10.273 343.419,208.858 423.794,386.825c115.534,255.738 173.916,537.447 228.247,811.343c102.512,517.553 136.658,1089.07 358.032,1574.14c7.958,17.507 36.028,21.559 46.518,3.907c116.836,-197.79 161.979,-422.13 213.995,-643.432c-15.337,2.749 -30.602,5.426 -45.939,8.103c169.865,224.991 221.808,523.629 260.512,796.15c47.892,336.908 65.038,677.578 90.069,1016.66c38.704,523.195 41.598,1235.21 429.292,1641.93c12.877,13.529 40.007,12.588 45.866,-8.102c132.68,-464.452 117.633,-980.846 94.555,-1458.32c-22.934,-475.592 -53.029,-1003.56 -243.078,-1447.11c-7.306,-17.218 -28.286,-18.665 -41.815,-9.043c-153.008,108.806 -205.096,313.251 -231.864,489.048c-41.381,271.87 -23.512,555.388 21.342,825.595c56.863,342.189 198.947,1029.24 621.439,1109.69c178.329,34.002 318.46,-102.006 423.649,-228.247c185.563,-222.676 320.92,-487.239 459.893,-740.083c130.871,-238.158 255.015,-495.849 433.633,-702.899c51.365,-59.539 141.072,-162.196 231.43,-144.616c100.993,19.605 152.285,201.696 186.431,283.807c120.888,290.68 213.417,594.309 300.013,896.637c36.823,128.556 74.804,256.316 113.581,384.221c35.665,118.066 -56.718,259.717 -151.056,334.014c-240.617,189.688 -791.158,138.106 -1012.17,-64.169c-254.724,-233.166 -266.951,-718.38 -264.853,-1035.32c2.677,-397.027 60.336,-794.921 149.464,-1181.31c86.524,-375.033 202.998,-777.992 425.964,-1095.8c78.06,-111.338 196.415,-240.111 343.419,-174.061c135.284,60.77 223.472,227.668 289.45,351.016c155.613,290.969 247.635,598.288 346.53,910.599c45.866,144.834 92.456,290.101 149.97,430.811c28.649,70.102 62.072,179.053 127.977,225.787c53.174,37.619 151.707,52.088 204.301,7.524c27.636,-23.44 41.888,-66.919 56.718,-98.388c48.616,-103.236 97.955,-203.578 157.856,-300.953c89.273,-144.906 174.784,-309.128 300.446,-426.688c208.931,-195.402 363.459,25.972 455.553,218.263c232.153,484.636 -5.353,928.614 -254.942,1349.51c-96.579,162.919 -192.798,325.55 -266.661,500.334c-3.545,8.247 -1.664,20.256 4.702,26.839c499.249,509.161 967.679,-589.824 1264.65,-839.34c75.166,-63.156 211.68,-168.707 301.821,-84.209c58.165,54.476 78.349,171.023 105.261,242.933c61.349,164.077 151.273,372.357 306.669,469.732c274.836,172.253 531.08,-280.841 704.49,-421.985c112.495,-91.515 239.822,-173.409 381.544,-105.189c93.108,44.854 178.112,94.699 275.705,132.246c233.238,89.707 466.766,179.27 703.694,258.921c487.023,163.571 956.539,257.908 1469.1,163.281c276.934,-51.075 548.66,-109.746 828.127,-145.195c603.714,-76.468 1213.43,-103.814 1821.13,-123.926c1151.8,-38.126 2304.82,-40.875 3457.05,-40.151c2000.68,1.302 4001.37,23.222 6001.84,48.181c324.682,4.051 649.292,8.247 973.974,12.516c34.508,0.434 39.789,-53.246 5.064,-53.752c-2176.55,-28.793 -4353.18,-54.837 -6529.95,-59.974c-1246.13,-2.966 -2493.06,-2.676 -3738.76,34.292c-640.899,19.026 -1283.97,44.347 -1921.11,120.019c-200.972,23.946 -402.162,52.233 -600.748,91.516c-322.801,63.735 -631.205,131.16 -962.977,96.652c-267.891,-27.853 -529.633,-108.661 -783.996,-194.1c-236.928,-79.579 -470.529,-169.142 -703.695,-258.921c-139.914,-53.897 -305.872,-205.096 -465.175,-160.388c-190.989,53.535 -334.231,223.183 -464.306,361.289c-61.421,65.182 -124.071,138.322 -201.407,185.129c-145.702,88.26 -257.619,4.558 -347.181,-119.875c-120.164,-167.115 -141.072,-382.34 -256.823,-545.477c-60.263,-84.932 -140.854,-90.213 -232.587,-49.701c-299.723,132.246 -469.009,494.113 -665.497,735.888c-104.537,128.629 -249.877,308.983 -427.7,329.891c-75.817,8.971 -235.12,-30.457 -234.179,-131.161c0.506,-57.731 78.06,-160.46 104.248,-208.062c31.904,-58.093 65.689,-115.245 99.329,-172.325c221.881,-376.191 493.028,-795.861 379.085,-1252.86c-54.258,-217.757 -265.359,-702.537 -561.899,-500.262c-142.591,97.231 -235.12,269.628 -323.525,412.581c-54.909,88.839 -110.831,176.81 -156.625,270.857c-42.756,87.754 -81.098,260.151 -214.14,184.985c-114.015,-64.386 -162.485,-295.744 -202.564,-411.64c-62.216,-180.065 -116.041,-362.88 -172.686,-544.753c-94.627,-303.63 -226.945,-692.554 -473.422,-909.081c-205.097,-180.21 -397.75,-29.733 -523.485,162.775c-226.51,346.892 -344.721,767.72 -431.462,1169.23c-93.976,435.224 -151.923,887.088 -125.518,1332.87c17.146,289.233 67.281,722.793 338.5,895.263c252.916,160.821 681.774,198.223 951.763,61.275c107.649,-54.62 204.88,-175.869 244.38,-289.667c34.725,-100.197 -30.529,-202.347 -58.237,-298.276c-95.278,-329.384 -185.564,-658.985 -305.294,-980.774c-52.16,-140.275 -136.224,-506.845 -349.641,-464.523c-210.811,41.887 -358.9,347.326 -454.684,510.028c-177.461,301.532 -329.385,618.762 -523.34,910.6c-133.186,200.321 -356.875,522.978 -627.443,339.729c-250.602,-169.792 -355.863,-546.417 -419.453,-823.063c-75.383,-327.937 -110.76,-681.701 -55.995,-1015.72c21.197,-129.568 56.212,-275.415 143.893,-377.927c61.71,-72.127 38.343,-43.624 64.604,32.41c31.759,92.167 54.981,187.445 75.383,282.65c93.758,438.624 126.747,893.526 132.752,1341.19c5.064,375.54 2.893,773.941 -100.993,1137.9c15.264,-2.676 30.601,-5.425 45.866,-8.102c-197.717,-207.484 -272.666,-501.998 -322.945,-776.328c-61.132,-333.653 -82.69,-673.599 -106.636,-1011.45c-23.078,-325.984 -42.394,-654.138 -98.244,-976.578c-41.743,-240.617 -102.367,-492.086 -252.048,-690.31c-11.286,-15.048 -41.236,-11.575 -45.866,8.03c-50.714,215.876 -93.469,438.046 -207.629,631.205c15.554,1.302 31.036,2.605 46.518,3.907c-230.417,-504.747 -258.849,-1103.98 -370.115,-1641.93c-72.127,-348.483 -162.485,-962.47 -540.051,-1126.4c-308.042,-133.764 -564.286,143.894 -714.98,379.592c-264.274,413.231 -413.521,903.365 -542.077,1372.66c-235.915,861.405 -400.571,1766.8 -431.245,2660.97c-12.66,367.8 -48.254,985.332 282.577,1242.52c422.492,328.444 981.425,-295.237 1219.29,-587.003c387.983,-475.809 616.157,-1083.86 784.213,-1667.54c172.759,-600.242 334.593,-1340.54 80.52,-1941c-7.452,-17.652 -36.534,-21.559 -46.518,-3.907c-310.14,550.324 -383.859,1219.51 -461.413,1835.67c-91.154,723.444 -140.637,1469.68 -361.794,2168.6c-104.321,329.891 -255.231,656.96 -521.025,887.594c14.686,5.281 29.372,10.562 43.986,15.916c-232.805,-1126.62 -337.487,-2295.2 -345.952,-3445.19c-6.583,-897.94 95.495,-1848.4 -138.756,-2726.3c-7.741,-29.154 -48.76,-28.937 -53.463,2.098c-302.11,2014.65 -272.955,4085.72 -799.334,6064.06c17.291,1.592 34.581,3.111 51.871,4.703c-256.027,-1800.22 309.924,-3595.74 189.688,-5400.01c-2.026,-30.095 -41.309,-25.248 -51.871,-4.702c-416.56,808.16 -266.3,1788.28 -632.363,2616.19c16.567,-0.723 33.134,-1.519 49.7,-2.243c-142.446,-303.051 -133.837,-662.53 -127.904,-989.816c5.932,-324.899 28.503,-650.304 11.213,-975.203c-13.818,-259.211 -54.475,-521.893 -212.837,-735.237c-79.218,-106.636 -200.467,-213.705 -334.883,-132.101c-151.344,91.95 -218.046,321.643 -266.661,477.98c-77.771,249.733 -126.603,509.16 -165.38,767.502c-39.934,265.866 -56.212,534.191 -73.212,802.3c-56.284,887.015 -90.069,1780.32 -47.314,2668.64c18.303,379.736 41.598,773.579 147.511,1140.8c44.202,153.443 125.879,409.614 321.932,419.743c108.372,5.642 204.952,-73.141 277.007,-144.617c176.593,-175.146 295.527,-403.393 384.873,-632.941c226.944,-583.024 376.77,-1445.95 -65.689,-1968.57c-11.937,-14.107 -31.687,-11.213 -42.683,2.026c-55.127,66.412 -134.561,101.209 -189.76,167.622c15.482,1.302 31.036,2.604 46.518,3.906c-196.777,-586.351 -191.858,-1227.18 -237.724,-1837.69c-39.356,-523.195 -79.941,-1105.21 -377.204,-1555.84c-10.562,-15.916 -32.7,-9.549 -42.756,2.026c-177.244,204.301 -200.104,511.33 -212.548,769.238c-16.205,336.33 -2.387,675.119 -4.847,1011.81c-5.86,786.384 -28.431,1589.84 128.629,2364.65c5.787,28.648 52.739,29.372 53.462,-2.17c12.661,-547.069 -48.253,-1100.43 -132.969,-1640.05c-71.983,-458.085 -142.663,-1000.31 -400.282,-1398.63c-11.575,-17.869 -39.283,-8.754 -45.938,8.103c-114.739,290.969 -151.996,617.242 -194.39,924.779c-63.735,461.702 -109.602,925.792 -158.507,1389.16c-51.147,485.141 -102.222,970.645 -172.541,1453.47c-55.199,378.94 -111.627,770.468 -244.018,1131.54c-59.901,163.426 -193.015,466.405 -409.18,301.604c-218.48,-166.609 -202.926,-583.53 -197.934,-823.497c18.592,-888.896 252.409,-1797.04 547.792,-2631.02c125.083,-353.258 262.031,-745.654 500.623,-1041.04c27.057,-33.423 79.507,-108.444 124.794,-119.368c43.479,-10.418 -12.732,-29.589 -3.038,26.261c10.418,60.191 9.911,124.649 13.818,185.419c7.813,123.13 12.877,246.477 15.771,369.825c10.924,474.796 -10.779,949.81 -56.573,1422.36c17.869,-0.724 35.665,-1.447 53.462,-2.171c-199.454,-662.964 -199.526,-1393.28 -202.347,-2081.06c-1.158,-300.591 -2.677,-602.846 -35.739,-901.918c-22.933,-206.905 -52.522,-451.646 -189.397,-618.617c-7.524,-9.188 -21.631,-12.082 -32.194,-6.945c-342.695,166.826 -525.075,592.139 -660.649,924.417c-191.568,469.588 -322.729,964.568 -428.858,1459.77c-180.933,843.97 -311.37,1717.24 -330.759,2580.67c-8.392,374.455 -29.444,855.256 188.819,1181.38c8.682,12.949 27.13,10.49 38.054,3.11c524.931,-356.658 793.69,-985.186 961.457,-1575.01c215.876,-759.111 293.068,-1556.06 323.235,-2342.22c25.682,-669.765 -11.864,-1336.27 -15.409,-2005.46c-3.039,-585.267 22.137,-1206.56 -120.309,-1778.66c-32.989,-132.39 -87.537,-347.47 -239.894,-392.251c-190.917,-56.212 -358.612,194.968 -451.574,320.558c-193.739,261.887 -349.641,549.528 -518.203,827.62c-218.77,360.927 -446.221,720.913 -604.8,1113.53c-160.46,397.316 -247.924,839.051 -132.101,1260.53c70.464,256.388 215.514,470.455 368.667,683.655c183.466,255.303 380.315,508.147 607.043,726.844c86.958,83.92 273.534,285.399 416.342,219.638c130.871,-60.191 168.128,-289.089 190.772,-410.483c53.39,-285.76 56.791,-582.083 51.726,-871.822c-10.273,-592.646 -53.607,-1211.34 -204.734,-1786.69c-20.329,-77.192 -42.901,-154.672 -77.264,-226.945c-6.728,-14.107 -22.21,-17.796 -35.955,-12.805c-270.786,97.521 -450.779,399.848 -586.28,635.112c-184.478,320.486 -333.435,665.135 -447.884,1016.58c-202.782,622.235 -232.226,1311.32 -220.868,1960.61c5.715,330.976 27.274,664.556 89.346,990.178c44.925,235.482 111.555,560.815 301.242,727.641c216.454,190.483 363.314,-170.227 423.36,-328.299c166.03,-437.467 281.347,-905.536 298.999,-1374.04c34.002,-901.412 -284.024,-1692.64 -743.411,-2448.79c-430.739,-708.976 -901.919,-1438.86 -1068.17,-2264.24c-85.873,-426.036 -73.43,-868.205 84.571,-1276.44c132.824,-343.274 390.298,-788.844 740.517,-952.27c513.935,-239.749 1019.99,283.446 1266.97,677.578c228.68,364.906 514.658,1046.17 158.289,1423.23c-129.786,137.382 -310.43,108.806 -483.261,100.775c-204.373,-9.477 -361.939,32.483 -542.004,132.391c-348.7,193.449 -639.236,504.892 -918.992,785.733c-539.183,541.281 -1003.85,1174.3 -1221.83,1915.17c-180.572,613.915 -164.222,1265.45 -84.281,1894.63c36.317,285.76 84.281,580.274 193.159,848.6c57.37,141.289 155.541,340.959 331.121,353.62c230.706,16.639 373.948,-286.412 446.654,-459.315c121.829,-289.595 189.543,-603.208 250.674,-910.383c181.44,-911.54 355.356,-1850.06 372.429,-2781.21c4.196,-229.043 47.747,-751.515 -204.156,-886.871c-99.546,-53.535 -209.509,-2.604 -294.659,55.199c-247.924,168.418 -426.832,420.61 -565.95,681.701c-356.658,669.404 -511.693,1438.79 -507.931,2192.69c3.473,698.703 50.135,1427.64 246.84,2101.24c65.182,223.255 148.884,462.064 315.783,631.061c12.154,12.299 32.049,13.022 42.756,-2.026c194.679,-274.113 283.011,-614.927 365.484,-936.137c96.001,-373.803 186.359,-748.909 283.373,-1122.57c230.2,-886.654 459.532,-1775.84 625.49,-2677.32c149.464,-811.705 419.525,-2676.82 -829.935,-2786.71c-369.247,-32.483 -744.786,104.393 -1079.96,243.728c-353.114,146.787 -881.373,389.285 -975.565,806.641c-108.3,480.077 407.588,620.643 705.648,837.169c116.836,84.86 225.208,206.978 249.371,354.85c22.716,138.684 -141.072,203.577 -249.01,268.615c-148.233,89.345 -311.877,162.92 -444.99,275.415c-339.947,287.352 -264.419,802.228 -204.373,1191.8c137.092,889.909 393.553,1772.66 693.493,2620.39c131.667,372.14 271.581,740.446 448.608,1093.41c162.341,323.886 350.509,735.526 11.792,1012.03c-375.684,306.668 -972.743,381.544 -1442.4,349.423c-237.579,-16.205 -494.981,-89.851 -654.5,-277.585c-274.981,-323.742 -121.828,-731.475 88.694,-1040.24c155.83,-228.464 351.883,-424.011 505.471,-653.994c172.614,-258.631 335.099,-525.582 532.382,-766.634c90.865,-110.976 193.232,-229.404 318.461,-303.195c21.052,-12.371 54.547,-36.1 79.434,-38.705c75.817,-7.957 32.338,-11.502 58.816,44.637c42.828,90.937 43.045,225.281 60.625,324.031c51.943,291.548 132.896,619.268 410.988,777.268c460.762,261.815 1085.24,-105.478 1347.13,-492.81c382.702,-566.168 407.155,-1393.5 291.187,-2042.93c-95.133,-532.527 -327.938,-971.513 -628.891,-1411.01c-287.569,-419.959 -600.386,-880.721 -1008.41,-1193.83c-94.12,-72.272 -238.013,-175.073 -365.122,-132.535c-194.245,64.966 -267.241,353.909 -299.796,526.089c-58.309,308.115 -46.806,631.422 -2.459,940.55c21.992,153.66 41.959,472.337 238.447,521.17c159.881,39.717 317.881,-140.855 409.904,-242.716c190.482,-210.956 358.466,-449.621 522.326,-681.557c179.704,-254.435 336.691,-532.31 395.218,-841.583c64.748,-342.117 -2.243,-695.158 -138.539,-1012.03c-68.438,-159.013 -168.129,-294.949 -267.241,-435.658c-60.19,-85.439 -168.49,-201.986 -178.474,-309.852c-6.004,-64.603 39.356,-128.845 69.813,-187.227c128.194,-245.465 283.518,-478.559 454.829,-695.954c197.284,-250.384 838.979,-1000.38 1106.22,-432.692c98.533,209.51 109.023,463.656 109.891,690.817c1.013,287.931 -27.418,575.862 -66.412,860.827c-77.408,565.299 -198.368,1125.75 -346.674,1676.51c-60.191,223.617 -126.241,444.918 -206.978,662.024c-71.042,191.134 -150.549,381.038 -252.482,557.993c-42.611,74.153 -88.911,146.786 -141.506,214.284c-17.724,22.716 -183.031,235.047 -229.549,220.723c-16.132,-4.992 -64.024,-151.345 -71.404,-168.129c-28.648,-65.327 -58.237,-130.22 -88.477,-194.823c-72.272,-154.239 -148.523,-306.813 -231.213,-455.77c-91.66,-165.09 -217.322,-445.787 -404.26,-524.281c-170.227,-71.476 -348.701,68.872 -466.767,176.521c-204.011,186.07 -369.607,411.784 -545.043,623.681c-154.745,186.938 -303.846,341.538 -520.59,453.021c-200.322,103.091 -467.345,212.548 -693.349,131.957c-313.397,-111.7 -330.253,-555.172 -291.332,-828.851c49.773,-350.436 220.506,-677.867 430.956,-958.202c304.498,-405.563 852.073,-941.056 1396.03,-609.936c402.597,245.103 311.443,871.172 245.609,1258.5c-90.792,534.336 -261.452,1050.01 -381.038,1577.76c-138.684,611.962 -126.096,1257.06 -57.514,1877.56c75.022,678.736 225.281,1360.58 485.215,1993.67c102.367,249.227 223.544,493.679 380.459,713.461c87.898,123.058 236.639,344.649 405.997,365.918c493.172,62.072 71.187,-2111.01 36.389,-2345.12c-125.011,-840.208 -254.797,-1680.13 -416.631,-2514.19c-4.92,-25.393 -43.262,-30.819 -51.871,-4.703c-191.496,582.011 -394.929,1276.66 -839.268,1721.08c-567.325,567.542 -1121.12,-197.284 -1354.58,-692.192c-150.693,-319.545 -249.081,-659.42 -320.775,-1004.65c-56.356,-271.364 -145.629,-671.863 19.967,-922.609c344.432,-521.603 858.222,487.095 973.539,713.027c261.309,512.126 458.23,1051.67 678.953,1581.52c13.456,32.265 60.986,8.97 48.76,-23.151c-165.018,-433.994 -261.525,-969.27 -593.948,-1314.06c-13.166,-13.601 -30.601,-11.358 -42.683,2.026c-286.918,318.243 -376.408,837.531 -439.492,1245.55c-68.149,441.012 -124.433,975.058 57.875,1397.69c7.596,17.653 36.317,21.487 46.445,3.907c192.798,-333.363 138.974,-749.271 132.318,-1117.94c-5.209,-287.858 -3.328,-575.644 -10.996,-863.575c-18.159,-685.247 -45.215,-1377 27.057,-2060.15c29.444,-278.743 69.378,-576.947 196.415,-830.586c5.353,-10.707 62.288,-111.411 54.113,-109.602c21.776,-4.847 81.605,67.135 94.916,81.532c66.774,71.693 117.271,157.783 160.894,244.958c227.162,453.889 310.141,994.302 349.062,1495.36c17.725,227.668 24.597,458.736 1.086,686.332c-9.767,94.771 -23.729,355.428 -139.915,397.822c-160.604,58.671 -336.618,-329.168 -383.425,-424.228c-167.116,-339.223 -261.453,-717.44 -305.655,-1091.89c-21.631,-183.321 -30.168,-368.595 -19.389,-552.928c5.137,-86.886 14.324,-173.627 29.517,-259.283c9.188,-51.437 20.256,-102.584 34.291,-152.936c16.133,-58.02 0.651,-72.272 41.526,-52.956c80.302,37.908 110.108,239.966 120.164,311.226c20.401,145.195 11.937,294.08 -5.643,439.13c-39.138,322.078 -129.931,639.236 -245.826,941.636c-45.939,120.019 -96.508,238.519 -154.528,353.258c-32.989,65.399 -116.33,275.704 -193.377,303.195c16.35,-5.86 -30.602,-49.845 -49.845,-83.124c-29.083,-50.496 -50.714,-105.695 -70.03,-160.532c-49.121,-139.625 -79.144,-286.701 -101.861,-432.692c-49.917,-322.005 -68.51,-662.241 -13.817,-984.825c19.894,-117.632 48.687,-254.725 125.373,-350.436c23.222,-28.938 73.429,-83.703 116.764,-81.099c75.599,4.486 65.544,104.466 63.446,161.112c-5.354,145.34 -44.854,291.62 -87.031,430.16c-32.121,105.695 -65.544,255.375 -142.374,339.367c14.686,5.282 29.3,10.635 43.986,15.916c-16.712,-98.099 -20.474,-195.04 -20.763,-294.659c-0.072,-34.436 -53.824,-39.789 -53.752,-5.064" />
</svg>